<svg width="24" height="24" viewBox="0 0 24 24" fill="none" xmlns="http://www.w3.org/2000/svg">
<path fill-rule="evenodd" clip-rule="evenodd" d="M3.30005 6C3.30005 5.50294 3.70299 5.1 4.20005 5.1L19.8 5.1C20.2971 5.1 20.7001 5.50294 20.7001 6C20.7001 6.49705 20.2971 6.9 19.8 6.9L4.20005 6.9C3.70299 6.9 3.30005 6.49706 3.30005 6ZM3.30005 12C3.30005 11.5029 3.70299 11.1 4.20005 11.1L16.2 11.1C16.6971 11.1 17.1 11.5029 17.1 12C17.1 12.4971 16.6971 12.9 16.2 12.9L4.20005 12.9C3.70299 12.9 3.30005 12.4971 3.30005 12ZM4.20005 17.1C3.70299 17.1 3.30005 17.5029 3.30005 18C3.30005 18.4971 3.70299 18.9 4.20005 18.9L19.8 18.9C20.2971 18.9 20.7001 18.4971 20.7001 18C20.7001 17.5029 20.2971 17.1 19.8 17.1H4.20005Z" fill="#8D9299"/>
</svg>
