<svg width="100" height="100" viewBox="0 0 100 100" fill="none" xmlns="http://www.w3.org/2000/svg">
<g clip-path="url(#clip0_18_483)">
<rect width="100" height="100" rx="16" fill="#5C8EF2"/>
<rect width="100" height="100" fill="#5C8EF2"/>
<path d="M78.3483 50C76.9093 50 75.7443 51.1449 75.7443 52.5591C75.7443 58.8275 70.5527 63.9295 64.1742 63.9295C57.7957 63.9295 52.604 58.8275 52.604 52.5591C52.604 51.1449 51.4391 50 50 50C48.5609 50 47.396 51.1449 47.396 52.5591C47.396 58.8275 42.2043 63.9295 35.8258 63.9295C29.4473 63.9295 24.2557 58.8275 24.2557 52.5591C24.2557 51.1449 23.0907 50 21.6516 50C20.2126 50 19.0476 51.1449 19.0476 52.5591C19.0476 61.6505 26.5746 69.0476 35.8258 69.0476C41.7849 69.0476 47.0232 65.9767 50 61.365C52.9768 65.9767 58.2178 69.0476 64.1742 69.0476C73.4253 69.0476 80.9524 61.6505 80.9524 52.5591C80.9524 51.1449 79.7874 50 78.3483 50Z" fill="white"/>
<path d="M35.7143 42.8572C38.3442 42.8572 40.4762 40.7252 40.4762 38.0953C40.4762 35.4654 38.3442 33.3334 35.7143 33.3334C33.0844 33.3334 30.9524 35.4654 30.9524 38.0953C30.9524 40.7252 33.0844 42.8572 35.7143 42.8572Z" fill="white"/>
<path d="M64.2857 42.8572C66.9156 42.8572 69.0476 40.7252 69.0476 38.0953C69.0476 35.4654 66.9156 33.3334 64.2857 33.3334C61.6558 33.3334 59.5238 35.4654 59.5238 38.0953C59.5238 40.7252 61.6558 42.8572 64.2857 42.8572Z" fill="white"/>
</g>
<defs>
<clipPath id="clip0_18_483">
<rect width="100" height="100" rx="16" fill="white"/>
</clipPath>
</defs>
</svg>
